<svg xmlns="http://www.w3.org/2000/svg" viewBox="0 0 720 900"><defs><linearGradient id="g" x1="0" y1="0" x2="1" y2="1"><stop stop-color="#fffaf4"/><stop offset="1" stop-color="#ead3bd"/></linearGradient><linearGradient id="gold" x1="0" y1="0" x2="1" y2="1"><stop stop-color="#f2d99a"/><stop offset="1" stop-color="#b88d46"/></linearGradient></defs><rect width="720" height="900" fill="url(#g)"/><path d="M146 530c52-90 142-138 270-146 78-4 130 18 156 64 26 48 8 108-44 140-84 52-248 34-382-58z" fill="#f1d8c5"/><path d="M292 420c36-64 106-86 166-52 58 32 76 106 38 162-40 58-126 70-180 24-40-34-52-86-24-134z" fill="none" stroke="url(#gold)" stroke-width="16"/><path d="M384 302h70l38 60H346z" fill="#fffaf4" stroke="#b88d46" stroke-width="8" stroke-linejoin="round"/><text x="64" y="785" fill="#15110d" font-family="Georgia, serif" font-size="54" opacity="0.22">Anéis</text></svg>
