<svg xmlns="http://www.w3.org/2000/svg" viewBox="0 0 720 900"><defs><linearGradient id="g" x1="0" y1="0" x2="1" y2="1"><stop stop-color="#fffaf4"/><stop offset="1" stop-color="#ead3bd"/></linearGradient><linearGradient id="gold" x1="0" y1="0" x2="1" y2="1"><stop stop-color="#f2d99a"/><stop offset="1" stop-color="#b88d46"/></linearGradient></defs><rect width="720" height="900" fill="url(#g)"/><path d="M232 184c80-58 198-54 270 18 58 58 76 148 42 226-36 84-112 136-198 130-88-6-158-68-184-154-26-84 4-168 70-220z" fill="#f4dfcf"/><path d="M186 322c34 188 112 288 174 288s140-100 174-288" fill="none" stroke="url(#gold)" stroke-width="13" stroke-linecap="round"/><path d="M340 632h40l22 34-42 42-42-42z" fill="#fffaf4" stroke="#b88d46" stroke-width="8" stroke-linejoin="round"/><text x="64" y="785" fill="#15110d" font-family="Georgia, serif" font-size="54" opacity="0.22">Colares</text></svg>
