<svg xmlns="http://www.w3.org/2000/svg" viewBox="0 0 720 900"><defs><linearGradient id="g" x1="0" y1="0" x2="1" y2="1"><stop stop-color="#fffdf9"/><stop offset="1" stop-color="#e8ccb4"/></linearGradient><linearGradient id="gold" x1="0" y1="0" x2="1" y2="1"><stop stop-color="#f3d99a"/><stop offset="1" stop-color="#b88d46"/></linearGradient></defs><rect width="720" height="900" fill="url(#g)"/><path d="M222 196c68-62 178-66 252-12 82 60 104 180 48 268-52 82-158 112-246 72-98-44-130-246-54-328z" fill="#f4dfcf"/><path d="M206 314c34 172 102 258 154 258s120-86 154-258" fill="none" stroke="url(#gold)" stroke-width="12" stroke-linecap="round"/><path d="M326 592h68l32 50-66 64-66-64z" fill="#fffaf4" stroke="#b88d46" stroke-width="8" stroke-linejoin="round"/><path d="M494 468c12 58 44 96 88 120" fill="none" stroke="url(#gold)" stroke-width="8" stroke-linecap="round"/><path d="M596 596c-10 10-24 10-34 0 2-14 9-26 17-38 8 12 15 24 17 38z" fill="url(#gold)"/><text x="64" y="785" fill="#15110d" font-family="Georgia, serif" font-size="54" opacity="0.22">Conjuntos</text></svg>
