<svg xmlns="http://www.w3.org/2000/svg" viewBox="0 0 720 900"><defs><linearGradient id="g" x1="0" y1="0" x2="1" y2="1"><stop stop-color="#fffdf9"/><stop offset="1" stop-color="#efdcc6"/></linearGradient><linearGradient id="gold" x1="0" y1="0" x2="1" y2="1"><stop stop-color="#f3d99a"/><stop offset="1" stop-color="#b88d46"/></linearGradient></defs><rect width="720" height="900" fill="url(#g)"/><path d="M224 204c58-68 190-72 252-6 72 78 50 220-42 272-78 44-184 24-234-50-46-68-32-152 24-216z" fill="#f7e6d7"/><path d="M258 358c20 26 52 38 90 34" fill="none" stroke="#8b6552" stroke-width="6" stroke-linecap="round" opacity="0.36"/><path d="M456 356c30 10 58 6 82-12" fill="none" stroke="#8b6552" stroke-width="6" stroke-linecap="round" opacity="0.36"/><path d="M286 494c24 54 72 86 130 86s108-34 132-90" fill="none" stroke="url(#gold)" stroke-width="10" stroke-linecap="round"/><path d="M512 510c12 56 42 90 82 110" fill="none" stroke="url(#gold)" stroke-width="8" stroke-linecap="round"/><path d="M608 628c-10 10-24 10-34 0 2-14 9-26 17-38 8 12 15 24 17 38z" fill="url(#gold)"/><text x="64" y="785" fill="#15110d" font-family="Georgia, serif" font-size="54" opacity="0.22">Brincos</text></svg>
