<svg xmlns="http://www.w3.org/2000/svg" viewBox="0 0 720 900"><defs><linearGradient id="g" x1="0" y1="0" x2="1" y2="1"><stop stop-color="#fffdf9"/><stop offset="1" stop-color="#efdcc6"/></linearGradient><linearGradient id="gold" x1="0" y1="0" x2="1" y2="1"><stop stop-color="#f3d99a"/><stop offset="1" stop-color="#b88d46"/></linearGradient></defs><rect width="720" height="900" fill="url(#g)"/><path d="M126 426c86-80 196-116 330-104 68 6 112 34 132 78 20 46 2 96-42 124-72 44-202 28-324-30-50-24-82-46-96-68z" fill="#f1d8c5"/><path d="M168 420c74-52 166-76 278-66 58 6 94 24 110 52 14 28 4 60-26 78-58 34-164 20-264-28-44-20-76-34-98-36z" fill="none" stroke="url(#gold)" stroke-width="14" stroke-linecap="round"/><path d="M414 350c14 42 38 74 72 98" fill="none" stroke="#fffaf4" stroke-width="8" stroke-linecap="round" opacity="0.76"/><text x="64" y="785" fill="#15110d" font-family="Georgia, serif" font-size="54" opacity="0.22">Pulseiras</text></svg>
