<svg xmlns="http://www.w3.org/2000/svg" viewBox="0 0 980 1120" preserveAspectRatio="xMidYMid slice"><defs><linearGradient id="bg" x1="0" y1="0" x2="1" y2="1"><stop stop-color="#082A63"/><stop offset="0.48" stop-color="#0D47A1"/><stop offset="1" stop-color="#111111"/></linearGradient><linearGradient id="skin" x1="0" y1="0" x2="0" y2="1"><stop stop-color="#d7a88b"/><stop offset="1" stop-color="#a9715f"/></linearGradient><linearGradient id="gold" x1="0" y1="0" x2="1" y2="1"><stop stop-color="#E5C76B"/><stop offset="1" stop-color="#D4AF37"/></linearGradient></defs><rect width="980" height="1120" fill="url(#bg)"/><path d="M0 0h980v1120H0z" fill="#0D47A1" opacity="0.22"/><path d="M360 246c-88 56-136 166-112 292 22 116 110 198 220 202 134 4 248-110 250-258 2-172-130-320-358-236z" fill="url(#skin)"/><path d="M220 706c104-92 244-124 410-70 118 38 192 184 222 484H104c18-202 58-338 116-414z" fill="#111111"/><path d="M284 318c36-164 162-246 326-216 116 22 184 104 204 228-126-72-286-74-430-6-46 22-78 30-100-6z" fill="#161616"/><path d="M292 336c58-132 178-188 320-150 78 22 134 76 168 156-128-72-276-68-432 20-24 14-44 4-56-26z" fill="#1C1C1C"/><path d="M354 520c24 26 62 38 110 28" fill="none" stroke="#5a352c" stroke-width="6" stroke-linecap="round" opacity="0.38"/><path d="M554 516c36 14 74 8 112-18" fill="none" stroke="#5a352c" stroke-width="6" stroke-linecap="round" opacity="0.38"/><path d="M454 626c42 24 90 20 134-10" fill="none" stroke="#74473c" stroke-width="6" stroke-linecap="round" opacity="0.5"/><path d="M446 744c22 62 72 102 136 106 62 2 118-32 150-90" fill="none" stroke="url(#gold)" stroke-width="10" stroke-linecap="round"/><path d="M610 846c50-12 92-42 122-86" fill="none" stroke="#FFFFFF" stroke-width="4" opacity="0.26" stroke-linecap="round"/><path d="M644 746c18 72 60 120 126 154" fill="none" stroke="url(#gold)" stroke-width="8" stroke-linecap="round"/><path d="M786 910c-15 13-34 13-50 0 4-20 14-38 26-56 12 18 22 36 24 56z" fill="url(#gold)"/><path d="M128 90h724v940H128z" fill="none" stroke="#D4AF37" stroke-width="3" opacity="0.28"/><text x="86" y="1020" fill="#FFFFFF" font-family="Georgia, serif" font-size="64" opacity="0.12">JB ACESSÓRIOS</text></svg>
