<svg xmlns="http://www.w3.org/2000/svg" viewBox="0 0 860 1040" preserveAspectRatio="xMidYMid slice"><defs><linearGradient id="skin" x1="0" y1="0" x2="0" y2="1"><stop stop-color="#ead0bd"/><stop offset="1" stop-color="#c99f84"/></linearGradient><linearGradient id="bg" x1="0" y1="0" x2="1" y2="1"><stop stop-color="#fffaf4"/><stop offset="0.55" stop-color="#f1dfcc"/><stop offset="1" stop-color="#d5b796"/></linearGradient><linearGradient id="gold" x1="0" y1="0" x2="1" y2="1"><stop stop-color="#f2d99a"/><stop offset="1" stop-color="#b88d46"/></linearGradient></defs><rect width="860" height="1040" fill="url(#bg)"/><path d="M0 0h860v1040H0z" fill="#fff" opacity="0.18"/><path d="M390 254c-80 42-126 138-110 246 12 78 66 148 144 162 116 20 214-80 220-210 6-150-96-254-254-198z" fill="url(#skin)"/><path d="M290 520c-84 72-142 222-156 520h610c-38-270-112-436-242-488-64 36-150 32-212-32z" fill="#fff8ef"/><path d="M270 350c10-160 126-250 278-210 74 20 120 76 134 152-76-40-162-42-248-14-66 22-118 58-164 72z" fill="#6f4d3d"/><path d="M286 318c62-86 152-126 268-92 88 26 132 94 142 184 28-118-16-230-112-280-118-62-282-18-332 118-26 70-20 136 34 70z" fill="#4f352b"/><path d="M438 654c16 46 52 78 96 82 44 4 86-18 112-58" fill="none" stroke="url(#gold)" stroke-width="9" stroke-linecap="round"/><path d="M556 738c36-8 68-28 90-60" fill="none" stroke="#fff" stroke-width="4" opacity="0.55" stroke-linecap="round"/><path d="M562 658c12 54 48 90 92 112" fill="none" stroke="url(#gold)" stroke-width="8" stroke-linecap="round"/><path d="M668 774c-12 10-28 10-40 0 3-16 11-28 20-42 10 14 18 26 20 42z" fill="url(#gold)"/><path d="M322 500c18 24 44 36 76 32" fill="none" stroke="#7b5142" stroke-width="5" stroke-linecap="round" opacity="0.42"/><path d="M514 498c26 12 54 10 82-8" fill="none" stroke="#7b5142" stroke-width="5" stroke-linecap="round" opacity="0.42"/><path d="M420 588c32 18 72 18 108-2" fill="none" stroke="#8c5d4c" stroke-width="5" stroke-linecap="round" opacity="0.5"/><path d="M236 716c104 82 250 110 424 28" fill="none" stroke="#ead0bd" stroke-width="3" opacity="0.5"/><rect x="48" y="58" width="764" height="924" fill="none" stroke="#fff" stroke-width="2" opacity="0.42"/></svg>
