<svg xmlns="http://www.w3.org/2000/svg" viewBox="0 0 600 800" preserveAspectRatio="xMidYMid slice"><defs><linearGradient id="bg" x1="0" y1="0" x2="0" y2="1"><stop stop-color="#f5f5f5"/><stop offset="1" stop-color="#e8e8e8"/></linearGradient><linearGradient id="skin" x1="0" y1="0" x2="0" y2="1"><stop stop-color="#f5d0c5"/><stop offset="1" stop-color="#e8b8a8"/></linearGradient><linearGradient id="gold" x1="0" y1="0" x2="1" y2="1"><stop stop-color="#D4AF37"/><stop offset="1" stop-color="#B8860B"/></linearGradient><linearGradient id="hair" x1="0" y1="0" x2="0" y2="1"><stop stop-color="#2c1810"/><stop offset="1" stop-color="#1a0f0a"/></linearGradient></defs><rect width="600" height="800" fill="url(#bg)"/><path d="M300 80c-60 0-110 50-110 110v30h-20c-50 0-90 40-90 90v40c0 50 40 90 90 90h20v20c0 50 40 90 90 90h30c50 0 90-40 90-90v-20h20c50 0 90-40 90-90v-40c0-50-40-90-90-90h-20v-30c0-60-50-110-110-110h-30z" fill="url(#skin)"/><path d="M180 400c80-70 160-90 240-50 60 30 100 120 120 280H100c20-140 50-200 80-230z" fill="#ffffff"/><path d="M200 420c70-60 140-80 200-40 50 28 90 110 100 250H120c15-130 40-180 80-210z" fill="url(#hair)"/><path d="M220 440c60-50 120-70 160-30 40 25 70 100 80 220H140c12-120 35-160 80-190z" fill="#1a0f0a"/><path d="M280 480c20 15 40 20 60 15" fill="none" stroke="#c49a6c" stroke-width="4" stroke-linecap="round" opacity="0.4"/><path d="M340 475c18 12 38 10 58-5" fill="none" stroke="#c49a6c" stroke-width="4" stroke-linecap="round" opacity="0.4"/><path d="M310 530c30 18 60 15 90-8" fill="none" stroke="#8b5a3c" stroke-width="5" stroke-linecap="round" opacity="0.5"/><path d="M300 580c25 50 70 80 130 85 55 3 100-25 130-75" fill="none" stroke="url(#gold)" stroke-width="8" stroke-linecap="round"/><path d="M450 665c40-10 75-35 100-70" fill="none" stroke="#000000" stroke-width="3" opacity="0.2" stroke-linecap="round"/><path d="M475 585c15 55 50 90 105 115" fill="none" stroke="url(#gold)" stroke-width="6" stroke-linecap="round"/><circle cx="520" cy="710" r="8" fill="url(#gold)"/><circle cx="540" cy="695" r="6" fill="url(#gold)"/><circle cx="555" cy="675" r="5" fill="url(#gold)"/><circle cx="505" cy="690" r="5" fill="url(#gold)"/><path d="M100 80h400v640H100z" fill="none" stroke="#D4AF37" stroke-width="2" opacity="0.15"/></svg>
