<svg xmlns="http://www.w3.org/2000/svg" viewBox="0 0 600 600"><defs><linearGradient id="g" x1="0" y1="0" x2="1" y2="1"><stop stop-color="#fffdf9"/><stop offset="1" stop-color="#efdcc6"/></linearGradient></defs><rect width="600" height="600" fill="url(#g)"/><path d="M118 326c74-72 174-100 300-84 58 8 94 34 106 70 12 38-10 78-54 96-74 32-224 2-352-82z" fill="#f1d8c5"/><path d="M160 316c64-42 146-60 246-48 46 6 74 22 84 44 10 22-4 46-36 58-58 22-172 0-294-54z" fill="none" stroke="#c6a665" stroke-width="13" stroke-linecap="round"/><text x="112" y="512" fill="#15110d" font-family="Georgia, serif" font-size="42" opacity="0.28">Pulseiras</text></svg>
