<svg xmlns="http://www.w3.org/2000/svg" viewBox="0 0 500 200" width="500" height="200"><defs><linearGradient id="gold" x1="0" y1="0" x2="1" y2="1"><stop stop-color="#D4AF37"/><stop offset="1" stop-color="#B8860B"/></linearGradient></defs><rect width="500" height="200" fill="#FFFFFF"/><path d="M250 20c-12 0-22 10-22 22v12h-8c-12 0-22 10-22 22v15c0 12 10 22 22 22h8v8c0 12 10 22 22 22h15c12 0 22-10 22-22v-8h8c12 0 22-10 22-22v-15c0-12-10-22-22-22h-8v-12c0-12-10-22-22-22h-15z" fill="url(#gold)"/><text x="250" y="95" fill="#000000" font-family="Georgia, serif" font-size="52" font-weight="700" text-anchor="middle" letter-spacing="10">JB</text><text x="250" y="130" fill="#000000" font-family="Arial, sans-serif" font-size="18" font-weight="600" text-anchor="middle" letter-spacing="5">ACESSÓRIOS</text><text x="250" y="155" fill="#666666" font-family="Arial, sans-serif" font-size="12" font-weight="400" text-anchor="middle" letter-spacing="3">PRATAS E SEMIJOIAS</text></svg>
