<svg xmlns="http://www.w3.org/2000/svg" viewBox="0 0 900 760" preserveAspectRatio="xMidYMid slice"><defs><linearGradient id="wall" x1="0" y1="0" x2="0" y2="1"><stop stop-color="#f6f6f6"/><stop offset="1" stop-color="#d8d8d8"/></linearGradient><linearGradient id="blue" x1="0" y1="0" x2="1" y2="1"><stop stop-color="#0D47A1"/><stop offset="1" stop-color="#082A63"/></linearGradient><linearGradient id="gold" x1="0" y1="0" x2="1" y2="1"><stop stop-color="#E5C76B"/><stop offset="1" stop-color="#D4AF37"/></linearGradient></defs><rect width="900" height="760" fill="url(#wall)"/><rect x="70" y="98" width="760" height="166" fill="url(#blue)"/><rect x="70" y="264" width="760" height="14" fill="url(#gold)"/><text x="360" y="188" fill="#FFFFFF" font-family="Georgia, serif" font-size="72" font-weight="700">JB</text><text x="286" y="232" fill="#E5C76B" font-family="Arial, sans-serif" font-size="28" letter-spacing="8">ACESSÓRIOS</text><rect x="116" y="306" width="306" height="346" fill="#111111"/><rect x="478" y="306" width="306" height="346" fill="#111111"/><rect x="144" y="336" width="250" height="286" fill="#0D47A1" opacity="0.45"/><rect x="506" y="336" width="250" height="286" fill="#0D47A1" opacity="0.45"/><path d="M170 510c62-74 146-96 244-58" fill="none" stroke="#D4AF37" stroke-width="10" stroke-linecap="round"/><path d="M528 486c52-60 124-80 212-48" fill="none" stroke="#D4AF37" stroke-width="10" stroke-linecap="round"/><rect x="0" y="652" width="900" height="108" fill="#1C1C1C"/><rect x="70" y="92" width="760" height="572" fill="none" stroke="#D4AF37" stroke-width="2" opacity="0.6"/></svg>
