<svg xmlns="http://www.w3.org/2000/svg" viewBox="0 0 64 64" role="img"><path fill="#fff" d="M32 8a23 23 0 0 0-19.9 34.5L9 56l13.9-3.1A23 23 0 1 0 32 8zm0 41.9a18 18 0 0 1-9.2-2.5l-.7-.4-8.2 1.8 1.8-7.9-.5-.8A18.1 18.1 0 1 1 32 49.9zm10.2-13.5c-.6-.3-3.3-1.6-3.8-1.8s-.9-.3-1.3.3c-.4.6-1.5 1.8-1.9 2.2-.3.4-.7.4-1.3.1-.6-.3-2.4-.9-4.6-2.8-1.7-1.5-2.8-3.4-3.2-4-.3-.6 0-.9.3-1.2.3-.3.6-.7.9-1 .3-.4.4-.6.6-1 .2-.4.1-.8 0-1.1-.1-.3-1.3-3.1-1.7-4.2-.5-1.1-.9-1-1.3-1h-1.1c-.4 0-1.1.1-1.6.8-.5.6-2.1 2-2.1 5s2.2 5.8 2.5 6.2c.3.4 4.2 6.5 10.3 9.1 1.4.6 2.6 1 3.5 1.3 1.5.5 2.8.4 3.8.2 1.2-.2 3.3-1.4 3.8-2.7.5-1.3.5-2.4.3-2.7-.2-.2-.5-.4-1.1-.7z"/></svg>
